<svg xmlns="http://www.w3.org/2000/svg" width="40" height="40" viewBox="0 0 183 133" fill="none"><g filter="url(#filter0_f_2066_13848)"><path fill-rule="evenodd" clip-rule="evenodd" d="M59.5 20C59.6643 20 63.7633 24.4789 63.936 24.5C63.936 24.5 66.6388 27.2144 66.9287 28.5192C67.2138 29.7167 68.8676 31.1424 69.951 32.1118C75.0042 36.6834 70.2929 23.8598 72 24.5C75.5 26 80.6541 39.1898 81.185 41.578C81.6575 43.7033 80.1764 35.5 83 35.5C84.3686 35.5 91.0504 44.0301 91.2214 44.7144C91.5065 45.7978 91.5636 47.0524 91.7346 48.2499C91.8382 49.1821 92.0651 51.7854 93.2743 51.7854C94.3008 51.7854 95.2025 50.4951 95.8894 49.8082C95.8894 49.8082 95.8894 49.8082 96.408 49.2055C96.408 49.2055 96.7093 48.9041 97.0107 48.6027C98.3219 47.2916 97.0107 48.6027 97.9148 47.6986C100.326 45.2877 98.8189 46.7945 99.1203 46.4931C100.024 45.589 104.114 41.9011 106.281 40.0763C111.242 35.7423 122.283 26 122.283 26C133.834 26 142.949 19 154.5 19L161.432 26C145.287 39.2155 129.114 52.3971 112.948 65.5856C112.606 65.8137 112.378 66.2129 112.378 66.498C112.378 66.669 112.435 66.9542 112.549 67.1252C126.756 80.4305 141.864 93.5731 156.5 107C158.7 109.018 161.279 112.02 163.432 114H122.432C122.432 114 102.215 95.9145 92.3619 86.913C92.1909 86.799 91.9627 86.6279 91.7346 86.5708C91.6206 86.5138 91.4495 86.5708 91.3355 86.5708C91.0504 86.5708 90.8793 86.4568 90.5371 86.7419C88.7694 87.9965 86.8305 90.2775 85.1768 91.9312C83.409 93.5849 81.6412 95.4098 79.9304 97.0635C74.2279 102.424 67.8411 108.126 61.9105 112.289C60.9981 112.916 59.9716 113.259 59.0022 113.259L51 110C50 109.5 50.6195 108.514 50.6195 108.012C50.5624 107.613 49.8212 107.328 49.479 107.328C46.2286 107.328 37.5 114 34.8235 114L33 114C31.1154 114 20.0598 103.352 23 101C31.9411 93.7785 44.0595 89.0816 52.9005 82.0088C53.1856 81.7807 61 68 63.5 68C64.5 68 70.5 75.3289 70.5 75.5C70.5 85.6763 86.5861 74.3883 71 71C70.2016 70.8289 63.114 62.9124 63 62L62.1956 60.2252C59.352 60.2252 51 51.5 51 51.5C49.165 48.5639 52.4109 46.2034 47.9963 44.9424C46.9771 44.6366 47.0215 43.3093 46.5137 42.5474C45.7723 41.0077 44.0045 40.0953 42.75 39.2399C42.1797 38.8408 41.5524 38.4986 41.0392 38.0424C37.7318 35.0771 26.8102 26.0671 26.8102 26.0671L20 19L59.5 20Z" fill="url(#paint0_linear_2066_13848)"></path><path fill-rule="evenodd" clip-rule="evenodd" d="M59.5 20C59.6643 20 63.7633 24.4789 63.936 24.5C63.936 24.5 66.6388 27.2144 66.9287 28.5192C67.2138 29.7167 68.8676 31.1424 69.951 32.1118C75.0042 36.6834 70.2929 23.8598 72 24.5C75.5 26 80.6541 39.1898 81.185 41.578C81.6575 43.7033 80.1764 35.5 83 35.5C84.3686 35.5 91.0504 44.0301 91.2214 44.7144C91.5065 45.7978 91.5636 47.0524 91.7346 48.2499C91.8382 49.1821 92.0651 51.7854 93.2743 51.7854C94.3008 51.7854 95.2025 50.4951 95.8894 49.8082C95.8894 49.8082 95.8894 49.8082 96.408 49.2055C96.408 49.2055 96.7093 48.9041 97.0107 48.6027C98.3219 47.2916 97.0107 48.6027 97.9148 47.6986C100.326 45.2877 98.8189 46.7945 99.1203 46.4931C100.024 45.589 104.114 41.9011 106.281 40.0763C111.242 35.7423 122.283 26 122.283 26C133.834 26 142.949 19 154.5 19L161.432 26C145.287 39.2155 129.114 52.3971 112.948 65.5856C112.606 65.8137 112.378 66.2129 112.378 66.498C112.378 66.669 112.435 66.9542 112.549 67.1252C126.756 80.4305 141.864 93.5731 156.5 107C158.7 109.018 161.279 112.02 163.432 114H122.432C122.432 114 102.215 95.9145 92.3619 86.913C92.1909 86.799 91.9627 86.6279 91.7346 86.5708C91.6206 86.5138 91.4495 86.5708 91.3355 86.5708C91.0504 86.5708 90.8793 86.4568 90.5371 86.7419C88.7694 87.9965 86.8305 90.2775 85.1768 91.9312C83.409 93.5849 81.6412 95.4098 79.9304 97.0635C74.2279 102.424 67.8411 108.126 61.9105 112.289C60.9981 112.916 59.9716 113.259 59.0022 113.259L51 110C50 109.5 50.6195 108.514 50.6195 108.012C50.5624 107.613 49.8212 107.328 49.479 107.328C46.2286 107.328 37.5 114 34.8235 114L33 114C31.1154 114 20.0598 103.352 23 101C31.9411 93.7785 44.0595 89.0816 52.9005 82.0088C53.1856 81.7807 61 68 63.5 68C64.5 68 70.5 75.3289 70.5 75.5C70.5 85.6763 86.5861 74.3883 71 71C70.2016 70.8289 63.114 62.9124 63 62L62.1956 60.2252C59.352 60.2252 51 51.5 51 51.5C49.165 48.5639 52.4109 46.2034 47.9963 44.9424C46.9771 44.6366 47.0215 43.3093 46.5137 42.5474C45.7723 41.0077 44.0045 40.0953 42.75 39.2399C42.1797 38.8408 41.5524 38.4986 41.0392 38.0424C37.7318 35.0771 26.8102 26.0671 26.8102 26.0671L20 19L59.5 20Z" stroke="url(#paint1_linear_2066_13848)"></path></g><path fill-rule="evenodd" clip-rule="evenodd" d="M59.5 20C59.6643 20 63.7633 24.4789 63.936 24.5C63.936 24.5 66.6388 27.2144 66.9287 28.5192C67.2138 29.7167 68.8676 31.1424 69.951 32.1118C75.0042 36.6834 70.2929 23.8598 72 24.5C75.5 26 80.6541 39.1898 81.185 41.578C81.6575 43.7033 80.1764 35.5 83 35.5C84.3686 35.5 91.0504 44.0301 91.2214 44.7144C91.5065 45.7978 91.5636 47.0524 91.7346 48.2499C91.8382 49.1821 92.0651 51.7854 93.2743 51.7854C94.3008 51.7854 95.2025 50.4951 95.8894 49.8082C95.8894 49.8082 95.8894 49.8082 96.408 49.2055C96.408 49.2055 96.7093 48.9041 97.0107 48.6027C98.3219 47.2916 97.0107 48.6027 97.9148 47.6986C100.326 45.2877 98.8189 46.7945 99.1203 46.4931C100.024 45.589 104.114 41.9011 106.281 40.0763C111.242 35.7423 122.283 26 122.283 26C133.834 26 142.949 19 154.5 19L161.432 26C145.287 39.2155 129.114 52.3971 112.948 65.5856C112.606 65.8137 112.378 66.2129 112.378 66.498C112.378 66.669 112.435 66.9542 112.549 67.1252C126.756 80.4305 141.864 93.5731 156.5 107C158.7 109.018 161.279 112.02 163.432 114H122.432C122.432 114 102.215 95.9145 92.3619 86.913C92.1909 86.799 91.9627 86.6279 91.7346 86.5708C91.6206 86.5138 91.4495 86.5708 91.3355 86.5708C91.0504 86.5708 90.8793 86.4568 90.5371 86.7419C88.7694 87.9965 86.8305 90.2775 85.1768 91.9312C83.409 93.5849 81.6412 95.4098 79.9304 97.0635C74.2279 102.424 62.9307 111.337 57 115.5L51 110C50 109.5 50.6195 108.514 50.6195 108.012C50.5624 107.613 49.8212 107.328 49.479 107.328C46.2286 107.328 37.5 114 34.8235 114L26 107L27.5 105.5L22.5 101C31.4411 93.7785 44.0595 89.0816 52.9005 82.0088C53.1856 81.7807 61 68 63.5 68C64.5 68 70.5 75.3289 70.5 75.5C70.5 85.6763 86.5861 74.3883 71 71C70.2016 70.8289 63.114 62.9124 63 62L62.1956 60.2252C59.352 60.2252 51 51.5 51 51.5C49.165 48.5639 52.4109 46.2034 47.9963 44.9424C46.9771 44.6366 47.0215 43.3093 46.5137 42.5474C45.7723 41.0077 44.0045 40.0953 42.75 39.2399C42.1797 38.8408 41.5524 38.4986 41.0392 38.0424C37.7318 35.0771 26.8102 26.0671 26.8102 26.0671L20 19L59.5 20Z" fill="url(#paint2_linear_2066_13848)" stroke="url(#paint3_linear_2066_13848)"></path><path fill-rule="evenodd" clip-rule="evenodd" d="M57.3626 19.0671C58.0469 19.0671 58.9297 19.2016 59.5 20C59.8992 20.4561 59.8147 21.0059 59.9287 21.5192C60.2138 22.7167 61.8676 24.1424 62.951 25.1118C64.1486 26.1952 64.6618 26.8795 65.8023 26.8795C65.9163 26.8795 66.4296 26.8795 66.7717 26.7085C67.513 26.4234 68.0263 25.568 68.7676 24.9977C69.3949 24.4275 70.1362 24.1424 70.7635 24.1424C74.9546 24.1424 73.5607 31.7697 74.185 34.578C74.6412 36.2317 76.7512 37.4292 78.0057 37.4292C79.5454 37.4292 81.085 35.1482 82.3396 35.1482C83.7082 35.1482 84.0504 37.0301 84.2214 37.7144C84.5065 38.7978 84.5636 40.0524 84.7346 41.2499C84.8382 42.1821 85.0651 44.7854 86.2743 44.7854C87.3008 44.7854 88.2025 43.4951 88.8894 42.8082C88.8894 42.8082 88.8894 42.8082 89.408 42.2055C89.408 42.2055 89.7093 41.9041 90.0107 41.6027C91.3219 40.2916 90.0107 41.6027 90.9148 40.6986C93.3258 38.2877 91.8189 39.7945 92.1203 39.4931C93.0244 38.589 97.1137 34.9011 99.2806 33.0763C104.242 28.7423 115.283 19 115.283 19C128.333 19 141.382 19 154.432 19C138.287 32.2155 122.114 45.3971 105.948 58.5856C105.606 58.8137 105.378 59.2129 105.378 59.498C105.378 59.669 105.435 59.9542 105.549 60.1252C121.891 75.4301 139.953 91.8429 156.432 107H115.432C115.432 107 95.2148 88.9145 85.3619 79.913C85.1909 79.799 84.9627 79.6279 84.7346 79.5708C84.6206 79.5138 84.4495 79.5708 84.3355 79.5708C84.0504 79.5708 83.8793 79.4568 83.5371 79.7419C81.7694 80.9965 79.8305 83.2775 78.1768 84.9312C76.409 86.5849 74.6412 88.4098 72.9304 90.0635C67.2279 95.4239 60.8411 101.126 54.9105 105.289C53.9981 105.916 52.9716 106.259 52.0022 106.259C51.603 106.259 50.6906 106.145 50.6906 105.46C50.6906 104.662 51.9452 103.978 52.5724 103.407C53.0857 102.894 53.7129 102.438 54.3402 101.982C57.7617 99.2446 61.7535 96.1082 65.0609 92.6867C66.0304 91.7173 66.9428 90.4626 67.7412 89.3792C68.7106 87.9536 69.9651 86.4139 70.0792 84.9883C70.1932 84.6461 70.3643 84.0188 70.3643 83.9048C70.3643 83.2775 69.9651 82.7643 69.4519 82.7643C68.8817 82.7643 67.5701 83.5056 67.2279 83.7337C62.7799 86.8701 58.2179 91.261 53.9981 95.4239C53.0286 96.3933 46.2996 102.951 44.1327 102.951C43.9617 102.951 43.7906 102.78 43.6195 102.666V101.012C43.5624 100.613 42.8212 100.328 42.479 100.328C39.2286 100.328 30.1045 107 27.8235 107H25.936C25.936 107 25.8276 106.886 25.8276 106.715C25.8276 106.088 27.8235 104.662 28.1656 104.377C29.5913 103.236 31.0169 102.039 32.4996 101.012C33.583 100.157 34.8376 99.4157 35.9781 98.5603C36.1492 98.4462 36.5483 97.933 36.5483 97.6478C36.5483 97.1916 36.0922 97.1916 35.9211 97.1916C34.6095 97.1916 26.1127 101.412 23.4325 101.412C23.0334 101.412 22.8052 101.297 22.8052 100.955C22.8052 99.9859 29.1351 94.9106 29.9904 94.2263C32.9558 91.8313 36.0351 89.2652 39.1145 86.8131C41.2814 85.0453 43.6195 83.2205 45.9005 81.3957C47.7823 79.856 49.8922 78.2023 51.8881 76.6055C52.1732 76.3775 61.333 68 63.5 68C63.7281 68 64 68.3289 64 68.5C64 69.7545 60.7841 73.8113 60.3279 74.3816C60.0427 74.6667 55.5948 80.4262 55.5948 81.1675C55.5948 81.4527 56.108 81.6238 56.2221 81.6238C56.3932 81.6238 57.3626 81.2816 57.8758 80.9965C60.3279 79.7419 62.723 77.1188 65.232 75.0088C67.1709 73.2981 69.68 71.1311 71.5619 69.1352C72.0751 68.622 72.1891 67.9377 72.4172 67.4245C72.5313 66.9683 72.7024 66.4551 72.7594 65.9988V64.8583C72.4742 63.0335 71.4478 62.2922 70.0792 62.2922C68.5395 62.2922 67.1709 63.1476 65.7452 63.1476C65.5742 63.1476 64.2626 62.8625 64.2626 62.8625C63.3341 62.6635 61.9246 61.4399 61.9246 60.4104V56.2475C61.4683 54.0806 59.9857 52.769 58.332 52.769C58.1609 52.769 55.3667 53.2252 55.1956 53.2252C53.0857 53.2252 51.2413 52.2108 50.5 50.5C49.7587 48.7893 50.0633 46.7813 49.6642 45.1276C49.4931 44.3863 49.208 43.759 48.7517 43.0747C48.5806 42.7326 47.7253 41.8772 47.2691 41.8772H45.3873C43.5054 41.478 43.8476 39.254 42.2509 38.3986C41.8517 38.1706 41.3955 38.0565 40.9963 37.9424C40.426 37.7713 40.198 37.1441 39.9699 36.7449C39.9128 36.6308 39.9128 36.4598 39.8558 36.2887C39.7988 36.0606 39.6277 35.7185 39.5137 35.5474C38.7723 34.0077 37.0045 33.0953 35.75 32.2399C35.1797 31.8408 34.5524 31.4986 34.0392 31.0424C30.7318 28.0771 20 19 20 19L57.3626 19.0671Z" fill="black" stroke="url(#paint4_linear_2066_13848)"></path><defs><filter id="filter0_f_2066_13848" x="0.794189" y="0.46875" width="181.92" height="132.031" filterUnits="userSpaceOnUse" color-interpolation-filters="sRGB"><feFlood flood-opacity="0" result="BackgroundImageFix"></feFlood><feBlend mode="normal" in="SourceGraphic" in2="BackgroundImageFix" result="shape"></feBlend><feGaussianBlur stdDeviation="9" result="effect1_foregroundBlur_2066_13848"></feGaussianBlur></filter><linearGradient id="paint0_linear_2066_13848" x1="162.936" y1="23" x2="24.2694" y2="109.737" gradientUnits="userSpaceOnUse"><stop stop-color="#80FF7D"></stop><stop offset="0.5" stop-color="#80FFFF"></stop><stop offset="1" stop-color="#FF7DF2"></stop></linearGradient><linearGradient id="paint1_linear_2066_13848" x1="162.936" y1="23" x2="24.2694" y2="109.737" gradientUnits="userSpaceOnUse"><stop stop-color="#80FF7D"></stop><stop offset="0.5" stop-color="#80FFFF"></stop><stop offset="1" stop-color="#FF7DF2"></stop></linearGradient><linearGradient id="paint2_linear_2066_13848" x1="162.936" y1="23.0632" x2="23.056" y2="109.199" gradientUnits="userSpaceOnUse"><stop stop-color="#80FF7D"></stop><stop offset="0.5" stop-color="#80FFFF"></stop><stop offset="1" stop-color="#FF7DF2"></stop></linearGradient><linearGradient id="paint3_linear_2066_13848" x1="162.936" y1="23.0632" x2="23.056" y2="109.199" gradientUnits="userSpaceOnUse"><stop stop-color="#80FF7D"></stop><stop offset="0.5" stop-color="#80FFFF"></stop><stop offset="1" stop-color="#FF7DF2"></stop></linearGradient><linearGradient id="paint4_linear_2066_13848" x1="155.96" y1="22.7053" x2="26.05" y2="106.148" gradientUnits="userSpaceOnUse"><stop stop-color="#80FF7D"></stop><stop offset="0.5" stop-color="#80FFFF"></stop><stop offset="1" stop-color="#FF7DF2"></stop></linearGradient></defs></svg>